<svg width="64" height="64" viewBox="0 0 64 64" fill="none" xmlns="http://www.w3.org/2000/svg">
<rect width="64" height="64" rx="6" fill="#333333"/>
<path d="M32 15.8333C36.5563 15.8333 40.25 14.602 40.25 13.0833C40.25 11.5645 36.5563 10.3333 32 10.3333C27.4437 10.3333 23.75 11.5645 23.75 13.0833C23.75 14.602 27.4437 15.8333 32 15.8333Z" stroke="#BDBDBD" stroke-width="2" stroke-linecap="round" stroke-linejoin="round"/>
<path d="M40.25 19.5C40.25 21.0217 36.5833 22.25 32 22.25C27.4167 22.25 23.75 21.0217 23.75 19.5" stroke="#BDBDBD" stroke-width="2" stroke-linecap="round" stroke-linejoin="round"/>
<path d="M23.75 13.0833V25.9166C23.75 27.4383 27.4167 28.6666 32 28.6666C36.5833 28.6666 40.25 27.4383 40.25 25.9166V13.0833" stroke="#BDBDBD" stroke-width="2" stroke-linecap="round" stroke-linejoin="round"/>
<path d="M23.0469 51.5V40.1875H27.375C29.8281 40.1875 31.0469 41.4375 31.0469 43.125C31.0469 44.5 30.1719 45.2656 29.0625 45.5312V45.6406C30.2656 45.7031 31.4844 46.7031 31.4844 48.4219C31.4844 50.1875 30.2188 51.5 27.625 51.5H23.0469ZM27.3125 49.7969C28.7969 49.7969 29.4219 49.1562 29.4219 48.2656C29.4219 47.25 28.625 46.4688 27.3594 46.4688H25.0781V49.7969H27.3125ZM27.125 45C28.2031 45 29.0156 44.375 29.0156 43.375C29.0156 42.5 28.3906 41.875 27.1719 41.875H25.0781V45H27.125ZM33.1406 51.5V40.1875H40.5V41.8906H35.1719V44.9844H40.1094V46.6875H35.1719V49.7812H40.5312V51.5H33.1406Z" fill="#BDBDBD"/>
</svg>
