<svg width="30" height="30" viewBox="0 0 30 30" fill="none" xmlns="http://www.w3.org/2000/svg">
<rect width="30" height="30" rx="8" fill="#D60B03"/>
<g clip-path="url(#clip0_1124_2688)">
<path d="M12.7 16.375C10.126 16.375 5 17.6286 5 20.125V22H20.4V20.125C20.4 17.6286 15.274 16.375 12.7 16.375ZM7.574 19.8571C8.498 19.2357 10.731 18.5179 12.7 18.5179C14.669 18.5179 16.902 19.2357 17.826 19.8571H7.574ZM12.7 14.5C14.823 14.5 16.55 12.8179 16.55 10.75C16.55 8.68214 14.823 7 12.7 7C10.577 7 8.85 8.68214 8.85 10.75C8.85 12.8179 10.577 14.5 12.7 14.5ZM12.7 9.14286C13.613 9.14286 14.35 9.86071 14.35 10.75C14.35 11.6393 13.613 12.3571 12.7 12.3571C11.787 12.3571 11.05 11.6393 11.05 10.75C11.05 9.86071 11.787 9.14286 12.7 9.14286ZM20.444 16.4393C21.72 17.3393 22.6 18.5393 22.6 20.125V22H27V20.125C27 17.9607 23.15 16.7286 20.444 16.4393ZM19.3 14.5C21.423 14.5 23.15 12.8179 23.15 10.75C23.15 8.68214 21.423 7 19.3 7C18.706 7 18.156 7.13929 17.65 7.375C18.343 8.32857 18.75 9.49643 18.75 10.75C18.75 12.0036 18.343 13.1714 17.65 14.125C18.156 14.3607 18.706 14.5 19.3 14.5Z" fill="#F5F5F5"/>
</g>
<defs>
<clipPath id="clip0_1124_2688">
<rect width="22" height="22" fill="white" transform="translate(4 4)"/>
</clipPath>
</defs>
</svg>
