<svg width="24" height="24" viewBox="0 0 24 24" fill="none" xmlns="http://www.w3.org/2000/svg">
<g clip-path="url(#clip0_575_3132)">
<path d="M9.7 13.375C7.126 13.375 2 14.6286 2 17.125V19H17.4V17.125C17.4 14.6286 12.274 13.375 9.7 13.375ZM4.574 16.8571C5.498 16.2357 7.731 15.5179 9.7 15.5179C11.669 15.5179 13.902 16.2357 14.826 16.8571H4.574ZM9.7 11.5C11.823 11.5 13.55 9.81786 13.55 7.75C13.55 5.68214 11.823 4 9.7 4C7.577 4 5.85 5.68214 5.85 7.75C5.85 9.81786 7.577 11.5 9.7 11.5ZM9.7 6.14286C10.613 6.14286 11.35 6.86071 11.35 7.75C11.35 8.63929 10.613 9.35714 9.7 9.35714C8.787 9.35714 8.05 8.63929 8.05 7.75C8.05 6.86071 8.787 6.14286 9.7 6.14286ZM17.444 13.4393C18.72 14.3393 19.6 15.5393 19.6 17.125V19H24V17.125C24 14.9607 20.15 13.7286 17.444 13.4393ZM16.3 11.5C18.423 11.5 20.15 9.81786 20.15 7.75C20.15 5.68214 18.423 4 16.3 4C15.706 4 15.156 4.13929 14.65 4.375C15.343 5.32857 15.75 6.49643 15.75 7.75C15.75 9.00357 15.343 10.1714 14.65 11.125C15.156 11.3607 15.706 11.5 16.3 11.5Z" fill="#F5F5F5"/>
</g>
<defs>
<clipPath id="clip0_575_3132">
<rect width="24" height="24" fill="white"/>
</clipPath>
</defs>
</svg>
