<svg width="988" height="49" viewBox="0 0 988 49" fill="none" xmlns="http://www.w3.org/2000/svg">
<path d="M27.129 1.16724L18.8436 35.4711H42.1599L39.3003 47.338H0L11.1449 1.16724H27.129Z" fill="#FF7710"/>
<path d="M70.3918 1.16724L59.3202 47.338H43.3361L54.4077 1.16724H70.3918Z" fill="#FF7710"/>
<path d="M129.469 1.16724L104.466 20.1673L119.57 47.338H101.46L91.9279 29.3755L86.2089 33.785L82.9094 47.338H66.9986L78.0702 1.16724H93.9809L91.9279 9.98637C91.3414 12.4505 90.6081 14.9796 89.7283 17.4437C91.1947 15.8226 93.9809 13.2935 98.1603 9.79183L108.499 1.16724H129.469Z" fill="#FF7710"/>
<path d="M175.845 1.16724L173.132 12.3857H145.71L144.316 18.157H169.759L167.193 28.8567H141.75L140.137 35.6007H168.293L165.506 47.338H121.513L132.585 1.16724H175.845Z" fill="#FF7710"/>
<path d="M199.441 1.16724L191.155 35.4711H214.472L211.612 47.338H172.312L183.457 1.16724H199.441Z" fill="#FF7710"/>
<path d="M242.704 1.16724L231.632 47.338H215.648L226.719 1.16724H242.704Z" fill="#FF7710"/>
<path d="M295.988 19.7782C295.988 25.0956 294.815 29.8294 292.542 34.1093C290.342 38.3892 286.896 41.8909 282.35 44.4847C277.804 47.1434 272.525 48.4404 266.439 48.4404C259.034 48.4404 253.241 46.6895 249.062 43.0581C244.956 39.4915 242.83 34.3687 242.83 27.6895C242.83 19.7782 245.543 13.2287 250.969 7.91128C256.394 2.65871 263.506 0 272.378 0C279.491 0 285.21 1.75086 289.536 5.18772C293.788 8.68944 295.988 13.5529 295.988 19.7782ZM271.572 11.2833C269.372 11.2833 267.466 11.8669 265.706 13.0342C263.946 14.1365 262.627 15.5632 261.673 17.3789C260.72 19.1297 259.987 20.9454 259.474 22.8908C259.034 24.7714 258.741 26.5871 258.741 28.3379C258.741 31.1912 259.547 33.396 261.087 34.9523C262.627 36.5086 264.753 37.2219 267.539 37.2219C270.252 37.2219 272.598 36.1844 274.505 34.1093C276.484 32.0342 277.878 29.7646 278.611 27.3004C279.417 24.8362 279.784 22.4369 279.784 20.1673C279.784 17.5734 279.124 15.4335 277.804 13.7475C276.484 12.1263 274.431 11.2833 271.572 11.2833Z" fill="#FF7710"/>
<path d="M354.397 1.16724L343.252 47.338H327.928L320.522 28.9216C318.982 25.0308 317.956 22.1127 317.516 20.0376C317.149 23.0854 316.563 26.3925 315.756 29.9591L311.65 47.338H296.253L307.324 1.16724H323.162L330.274 19.3891C331.447 22.3721 332.474 25.2902 333.353 28.1434C333.647 25.2902 334.233 21.6587 335.26 17.3789L338.999 1.16724H354.397Z" fill="#FF7710"/>
<path d="M432.499 1.16724L426.193 28.0786C424.58 35.0171 421.867 40.0752 417.908 43.2526C413.949 46.495 408.083 48.0513 400.164 48.0513C392.905 48.0513 387.333 46.8841 383.52 44.4847C379.707 42.1503 377.801 38.7134 377.801 34.239C377.801 33.0069 378.168 30.6724 378.974 27.3004L385.207 1.16724H401.191L394.738 27.884C394.372 29.3106 394.225 30.4779 394.225 31.3857C394.225 33.1366 394.812 34.4984 395.985 35.4062C397.158 36.3141 398.771 36.768 400.971 36.768C402.511 36.768 403.83 36.5086 405.003 35.925C406.177 35.4062 407.056 34.5632 407.79 33.396C408.45 32.2936 408.963 31.256 409.329 30.3482C409.623 29.4403 409.989 28.2082 410.429 26.6519L416.662 1.16724H432.499Z" fill="#FF7710"/>
<path d="M487.014 1.16724L475.869 47.338H460.545L453.139 28.9216C451.6 25.0308 450.573 22.1127 450.133 20.0376C449.767 23.0854 449.18 26.3925 448.373 29.9591L444.267 47.338H428.87L439.941 1.16724H455.779L462.891 19.3891C464.064 22.3721 465.091 25.2902 465.971 28.1434C466.264 25.2902 466.85 21.6587 467.877 17.3789L471.616 1.16724H487.014Z" fill="#FF7710"/>
<path d="M510.587 1.16724L499.515 47.338H483.531L494.603 1.16724H510.587Z" fill="#FF7710"/>
<path d="M561.672 1.16724L535.349 47.4028H517.312L512.766 1.23208H528.677L529.264 8.75428C529.557 12.256 529.777 14.9796 529.777 16.7953C530.07 24.1878 530.07 29.7646 529.703 33.5257C531.83 27.7543 534.689 21.3345 538.282 14.2662L544.954 1.16724H561.672Z" fill="#FF7710"/>
<path d="M563.712 34.4984L560.706 47.338H545.601L548.681 34.4984H563.712Z" fill="#FF7710"/>
<path d="M641.168 15.1741L626.211 15.2389C625.918 13.5529 625.258 12.3857 624.231 11.6724C623.205 10.9591 621.665 10.6348 619.612 10.6348C617.852 10.6348 616.386 10.9591 615.286 11.6075C614.259 12.256 613.673 13.099 613.673 14.1365C613.673 14.9796 614.113 15.6929 614.919 16.2116C615.726 16.7304 617.339 17.2492 619.759 17.8328C625.551 19.1946 629.51 20.4267 631.563 21.4642C636.256 23.7987 638.529 27.3652 638.529 32.2287C638.529 34.9523 637.869 37.4165 636.476 39.5564C635.156 41.6963 633.323 43.3823 630.977 44.6144C628.704 45.8465 626.211 46.7544 623.498 47.4028C620.785 47.9864 617.926 48.3107 614.846 48.3107C611.84 48.3107 609.054 47.9864 606.414 47.4028C603.848 46.8192 601.502 45.9114 599.448 44.7441C597.396 43.5769 595.709 41.9557 594.536 39.8806C593.363 37.8055 592.776 35.4062 592.776 32.6827V31.8397H608.467C608.467 35.8601 611.107 37.8704 616.386 37.8704C618.439 37.8704 620.125 37.4813 621.372 36.768C622.545 36.0547 623.205 35.082 623.205 33.8499C623.205 33.4608 623.131 33.1366 623.058 32.8772C622.985 32.6178 622.838 32.3584 622.618 32.099C622.325 31.8397 622.105 31.6451 621.885 31.4506C621.665 31.256 621.298 31.0615 620.858 30.867C620.419 30.6724 619.979 30.4779 619.612 30.3482C619.245 30.2185 618.732 30.024 617.999 29.8294C617.266 29.6349 616.606 29.5052 616.166 29.3755C615.726 29.2458 614.993 29.0513 614.039 28.7919C613.013 28.5325 612.206 28.2731 611.62 28.1434C607.514 27.041 604.361 25.5495 602.015 23.6041C599.668 21.6587 598.495 19 598.495 15.5632C598.495 12.9693 599.082 10.6997 600.328 8.62459C601.575 6.61435 603.261 4.99318 605.314 3.82595C607.367 2.65871 609.714 1.8157 612.206 1.16724C614.699 0.583619 617.339 0.259387 620.125 0.259387C627.017 0.259387 632.223 1.49147 635.816 3.95564C639.335 6.41981 641.168 10.0512 641.168 14.785V15.1741Z" fill="#FF7710"/>
<path d="M717.548 1.16724L692.399 47.4028H676.854V36.4438C676.854 35.4062 677.074 29.57 677.661 18.9352C675.608 24.9659 673.115 31.1263 670.182 37.4165L665.49 47.4028H649.799L645.913 1.23208H661.824V16.2765C661.824 22.3072 661.53 27.884 661.017 33.0069C662.85 26.9113 665.416 20.5564 668.643 13.8123L674.582 1.23208H688.586V14.3311C688.586 21.3345 688.293 27.6895 687.706 33.396C690.199 25.6792 692.765 19 695.478 13.3584L701.197 1.16724H717.548Z" fill="#FF7710"/>
<path d="M767.671 1.16724L761.365 28.0786C759.752 35.0171 757.039 40.0752 753.08 43.2526C749.121 46.495 743.255 48.0513 735.336 48.0513C728.077 48.0513 722.505 46.8841 718.692 44.4847C714.879 42.1503 712.973 38.7134 712.973 34.239C712.973 33.0069 713.34 30.6724 714.146 27.3004L720.379 1.16724H736.363L729.91 27.884C729.544 29.3106 729.397 30.4779 729.397 31.3857C729.397 33.1366 729.984 34.4984 731.157 35.4062C732.33 36.3141 733.943 36.768 736.143 36.768C737.682 36.768 739.002 36.5086 740.175 35.925C741.349 35.4062 742.228 34.5632 742.962 33.396C743.621 32.2936 744.135 31.256 744.501 30.3482C744.795 29.4403 745.161 28.2082 745.601 26.6519L751.834 1.16724H767.671Z" fill="#FF7710"/>
<path d="M829.789 2.46417L819.011 47.338H803.76L810.286 20.297H798.334L800.68 10.8942H801.047C805.593 10.8942 808.966 10.3754 811.312 9.20821C813.658 8.04097 815.785 5.83619 817.691 2.46417H829.789Z" fill="#FF7710"/>
<path d="M883.144 27.4949L880.798 37.6758H874.052L871.706 47.338H857.261L859.534 37.6758H835.998L838.858 26.3925L867.82 2.46417H882.411L876.545 27.4949H883.144ZM862.394 27.4949L863.714 22.1775C864.3 19.5188 865.034 16.7953 865.913 13.942C864.154 15.8226 862.247 17.6383 860.194 19.3891L854.695 24.1229C852.935 25.6792 851.469 26.8465 850.149 27.6246C851.322 27.5598 852.789 27.4949 854.402 27.4949H862.394Z" fill="#FF7710"/>
<path d="M936.279 1.16724L933.419 12.9045H919.048L910.763 47.338H894.779L903.064 12.9045H888.253L891.039 1.16724H936.279Z" fill="#FF7710"/>
<path d="M987.982 1.16724L976.91 47.338H960.926L965.325 29.1161H950.294L945.822 47.338H929.911L940.983 1.16724H956.967L953.081 17.1195H968.185L972.071 1.16724H987.982Z" fill="#FF7710"/>
</svg>
