<svg width="297" height="40" viewBox="0 0 297 40" fill="none" xmlns="http://www.w3.org/2000/svg">
<path d="M28.3135 9.84082L30.1553 11.6982L40 20.0088L30.1553 28.3184L28.3135 30.1592L19.999 40L11.6865 30.1592L9.84375 28.3184L0 20.0088L9.84375 11.6982L11.6865 9.83984L19.999 0L28.3135 9.84082ZM23.3242 16.25V24.5996H15.457V27.1572H24.6025V20.2148L30.9375 16.25H23.3242ZM9.12305 16.25L15.459 20.2148V16.25H9.12305Z" fill="white"/>
<path d="M59.58 7.91278L55.738 25.8988H66.55L65.224 32.1208H47L52.168 7.91278H59.58Z" fill="white"/>
<path d="M79.1272 7.91278L73.9932 32.1208H66.5812L71.7152 7.91278H79.1272Z" fill="white"/>
<path d="M106.007 7.91278L94.4134 17.8748L101.417 32.1208H93.0194L88.5994 22.7028L85.9474 25.0148L84.4174 32.1208H77.0394L82.1734 7.91278H89.5514L88.5994 12.5368C88.3274 13.8288 87.9874 15.1548 87.5794 16.4468C88.2594 15.5968 89.5514 14.2708 91.4894 12.4348L96.2834 7.91278H106.007Z" fill="white"/>
<path d="M126.998 7.91278L125.74 13.7948H113.024L112.378 16.8208H124.176L122.986 22.4308H111.188L110.44 25.9668H123.496L122.204 32.1208H101.804L106.938 7.91278H126.998Z" fill="white"/>
<path d="M137.426 7.91278L133.584 25.8988H144.396L143.07 32.1208H124.846L130.014 7.91278H137.426Z" fill="white"/>
<path d="M156.973 7.91278L151.839 32.1208H144.427L149.561 7.91278H156.973Z" fill="white"/>
<path d="M181.167 17.6708C181.167 20.4588 180.623 22.9408 179.569 25.1848C178.549 27.4288 176.951 29.2648 174.843 30.6248C172.735 32.0188 170.287 32.6988 167.465 32.6988C164.031 32.6988 161.345 31.7808 159.407 29.8768C157.503 28.0068 156.517 25.3208 156.517 21.8188C156.517 17.6708 157.775 14.2368 160.291 11.4488C162.807 8.69478 166.105 7.30078 170.219 7.30078C173.517 7.30078 176.169 8.21878 178.175 10.0208C180.147 11.8568 181.167 14.4068 181.167 17.6708ZM169.845 13.2168C168.825 13.2168 167.941 13.5228 167.125 14.1348C166.309 14.7128 165.697 15.4608 165.255 16.4128C164.813 17.3308 164.473 18.2828 164.235 19.3028C164.031 20.2888 163.895 21.2408 163.895 22.1588C163.895 23.6548 164.269 24.8108 164.983 25.6268C165.697 26.4428 166.683 26.8168 167.975 26.8168C169.233 26.8168 170.321 26.2728 171.205 25.1848C172.123 24.0968 172.769 22.9068 173.109 21.6148C173.483 20.3228 173.653 19.0648 173.653 17.8748C173.653 16.5148 173.347 15.3928 172.735 14.5088C172.123 13.6588 171.171 13.2168 169.845 13.2168Z" fill="white"/>
<path d="M207.738 7.91278L202.57 32.1208H195.464L192.03 22.4648C191.316 20.4248 190.84 18.8948 190.636 17.8068C190.466 19.4048 190.194 21.1388 189.82 23.0088L187.916 32.1208H180.776L185.91 7.91278H193.254L196.552 17.4668C197.096 19.0308 197.572 20.5608 197.98 22.0568C198.116 20.5608 198.388 18.6568 198.864 16.4128L200.598 7.91278H207.738Z" fill="white"/>
<path d="M238.71 15.2568L231.774 15.2908C231.638 14.4068 231.332 13.7948 230.856 13.4208C230.38 13.0468 229.666 12.8768 228.714 12.8768C227.898 12.8768 227.218 13.0468 226.708 13.3868C226.232 13.7268 225.96 14.1688 225.96 14.7128C225.96 15.1548 226.164 15.5288 226.538 15.8008C226.912 16.0728 227.66 16.3448 228.782 16.6508C231.468 17.3648 233.304 18.0108 234.256 18.5548C236.432 19.7788 237.486 21.6488 237.486 24.1988C237.486 25.6268 237.18 26.9188 236.534 28.0408C235.922 29.1628 235.072 30.0468 233.984 30.6928C232.93 31.3388 231.774 31.8148 230.516 32.1548C229.258 32.4608 227.932 32.6308 226.504 32.6308C225.11 32.6308 223.818 32.4608 222.594 32.1548C221.404 31.8488 220.316 31.3728 219.364 30.7608C218.412 30.1488 217.63 29.2988 217.086 28.2108C216.542 27.1228 216.27 25.8648 216.27 24.4368V23.9948H223.546C223.546 26.1028 224.77 27.1568 227.218 27.1568C228.17 27.1568 228.952 26.9528 229.53 26.5788C230.074 26.2048 230.38 25.6948 230.38 25.0488C230.38 24.8448 230.346 24.6748 230.312 24.5388C230.278 24.4028 230.21 24.2668 230.108 24.1308C229.972 23.9948 229.87 23.8928 229.768 23.7908C229.666 23.6888 229.496 23.5868 229.292 23.4848C229.088 23.3828 228.884 23.2808 228.714 23.2128C228.544 23.1448 228.306 23.0428 227.966 22.9408C227.626 22.8388 227.32 22.7708 227.116 22.7028C226.912 22.6348 226.572 22.5328 226.13 22.3968C225.654 22.2608 225.28 22.1248 225.008 22.0568C223.104 21.4788 221.642 20.6968 220.554 19.6768C219.466 18.6568 218.922 17.2628 218.922 15.4608C218.922 14.1008 219.194 12.9108 219.772 11.8228C220.35 10.7688 221.132 9.91878 222.084 9.30678C223.036 8.69478 224.124 8.25278 225.28 7.91278C226.436 7.60678 227.66 7.43678 228.952 7.43678C232.148 7.43678 234.562 8.08278 236.228 9.37478C237.86 10.6668 238.71 12.5708 238.71 15.0528V15.2568Z" fill="white"/>
<path d="M273.614 7.91278L261.952 32.1548H254.744V26.4088C254.744 25.8648 254.846 22.8048 255.118 17.2288C254.166 20.3908 253.01 23.6208 251.65 26.9188L249.474 32.1548H242.198L240.396 7.94678H247.774V15.8348C247.774 18.9968 247.638 21.9208 247.4 24.6068C248.25 21.4108 249.44 18.0788 250.936 14.5428L253.69 7.94678H260.184V14.8148C260.184 18.4868 260.048 21.8188 259.776 24.8108C260.932 20.7648 262.122 17.2628 263.38 14.3048L266.032 7.91278H273.614Z" fill="white"/>
<path d="M296.342 7.91278L293.418 22.0228C292.67 25.6608 291.412 28.3128 289.576 29.9788C287.74 31.6788 285.02 32.4948 281.348 32.4948C277.982 32.4948 275.398 31.8828 273.63 30.6248C271.862 29.4008 270.978 27.5988 270.978 25.2528C270.978 24.6068 271.148 23.3828 271.522 21.6148L274.412 7.91278H281.824L278.832 21.9208C278.662 22.6688 278.594 23.2808 278.594 23.7568C278.594 24.6748 278.866 25.3888 279.41 25.8648C279.954 26.3408 280.702 26.5788 281.722 26.5788C282.436 26.5788 283.048 26.4428 283.592 26.1368C284.136 25.8648 284.544 25.4228 284.884 24.8108C285.19 24.2328 285.428 23.6888 285.598 23.2128C285.734 22.7368 285.904 22.0908 286.108 21.2748L288.998 7.91278H296.342Z" fill="white"/>
</svg>
