<svg width="163" height="22" viewBox="0 0 163 22" fill="none" xmlns="http://www.w3.org/2000/svg">
<path d="M15.5723 5.41211L16.585 6.43359L22 11.0049L16.585 15.5752L15.5723 16.5879L11 22L6.42773 16.5879L5.41406 15.5752L0 11.0049L5.41406 6.43359L6.42773 5.41211L11 0L15.5723 5.41211ZM12.8281 8.9375V13.5303H8.50195V14.9365H13.5312V11.1182L17.0156 8.9375H12.8281ZM5.01855 8.9375L8.50293 11.1182V8.9375H5.01855Z" fill="white"/>
<path d="M32.7691 4.35223L30.656 14.2445H36.6026L35.8733 17.6666H25.8501L28.6925 4.35223H32.7691Z" fill="white"/>
<path d="M43.52 4.35223L40.6963 17.6666H36.6197L39.4434 4.35223H43.52Z" fill="white"/>
<path d="M58.3042 4.35223L51.9275 9.83133L55.7797 17.6666H51.1608L48.7298 12.4867L47.2712 13.7583L46.4297 17.6666H42.3718L45.1955 4.35223H49.2534L48.7298 6.89543C48.5802 7.60603 48.3932 8.33533 48.1688 9.04593C48.5428 8.57843 49.2534 7.84913 50.3193 6.83933L52.956 4.35223H58.3042Z" fill="white"/>
<path d="M69.8492 4.35223L69.1573 7.58733H62.1635L61.8082 9.25163H68.2971L67.6426 12.3371H61.1537L60.7423 14.2819H67.9231L67.2125 17.6666H55.9925L58.8162 4.35223H69.8492Z" fill="white"/>
<path d="M75.5843 4.35223L73.4712 14.2445H79.4178L78.6885 17.6666H68.6653L71.5077 4.35223H75.5843Z" fill="white"/>
<path d="M86.3352 4.35223L83.5115 17.6666H79.4349L82.2586 4.35223H86.3352Z" fill="white"/>
<path d="M99.6421 9.71913C99.6421 11.2525 99.3429 12.6176 98.7632 13.8518C98.2022 15.086 97.3233 16.0958 96.1639 16.8438C95.0045 17.6105 93.6581 17.9845 92.106 17.9845C90.2173 17.9845 88.74 17.4796 87.6741 16.4324C86.6269 15.4039 86.0846 13.9266 86.0846 12.0005C86.0846 9.71913 86.7765 7.83043 88.1603 6.29703C89.5441 4.78233 91.358 4.01562 93.6207 4.01562C95.4346 4.01562 96.8932 4.52053 97.9965 5.51163C99.0811 6.52143 99.6421 7.92393 99.6421 9.71913ZM93.415 7.26943C92.854 7.26943 92.3678 7.43773 91.919 7.77433C91.4702 8.09223 91.1336 8.50363 90.8905 9.02723C90.6474 9.53213 90.4604 10.0557 90.3295 10.6167C90.2173 11.159 90.1425 11.6826 90.1425 12.1875C90.1425 13.0103 90.3482 13.6461 90.7409 14.0949C91.1336 14.5437 91.6759 14.7494 92.3865 14.7494C93.0784 14.7494 93.6768 14.4502 94.163 13.8518C94.6679 13.2534 95.0232 12.5989 95.2102 11.8883C95.4159 11.1777 95.5094 10.4858 95.5094 9.83133C95.5094 9.08333 95.3411 8.46623 95.0045 7.98003C94.6679 7.51253 94.1443 7.26943 93.415 7.26943Z" fill="white"/>
<path d="M114.256 4.35223L111.413 17.6666H107.505L105.616 12.3558C105.224 11.2338 104.962 10.3923 104.85 9.79393C104.756 10.6728 104.607 11.6265 104.401 12.655L103.354 17.6666H99.4268L102.25 4.35223H106.29L108.104 9.60693C108.403 10.4671 108.665 11.3086 108.889 12.1314C108.964 11.3086 109.113 10.2614 109.375 9.02723L110.329 4.35223H114.256Z" fill="white"/>
<path d="M131.291 8.39143L127.476 8.41013C127.401 7.92393 127.233 7.58733 126.971 7.38163C126.709 7.17593 126.316 7.08243 125.793 7.08243C125.344 7.08243 124.97 7.17593 124.69 7.36293C124.428 7.54993 124.278 7.79303 124.278 8.09223C124.278 8.33533 124.39 8.54103 124.596 8.69063C124.802 8.84023 125.213 8.98983 125.83 9.15813C127.308 9.55083 128.317 9.90613 128.841 10.2053C130.038 10.8785 130.617 11.907 130.617 13.3095C130.617 14.0949 130.449 14.8055 130.094 15.4226C129.757 16.0397 129.29 16.5259 128.691 16.8812C128.112 17.2365 127.476 17.4983 126.784 17.6853C126.092 17.8536 125.363 17.9471 124.577 17.9471C123.811 17.9471 123.1 17.8536 122.427 17.6853C121.772 17.517 121.174 17.2552 120.65 16.9186C120.127 16.582 119.697 16.1145 119.397 15.5161C119.098 14.9177 118.949 14.2258 118.949 13.4404V13.1973H122.95C122.95 14.3567 123.624 14.9364 124.97 14.9364C125.494 14.9364 125.924 14.8242 126.242 14.6185C126.541 14.4128 126.709 14.1323 126.709 13.777C126.709 13.6648 126.69 13.5713 126.672 13.4965C126.653 13.4217 126.616 13.3469 126.56 13.2721C126.485 13.1973 126.429 13.1412 126.373 13.0851C126.316 13.029 126.223 12.9729 126.111 12.9168C125.999 12.8607 125.886 12.8046 125.793 12.7672C125.699 12.7298 125.568 12.6737 125.381 12.6176C125.194 12.5615 125.026 12.5241 124.914 12.4867C124.802 12.4493 124.615 12.3932 124.372 12.3184C124.11 12.2436 123.904 12.1688 123.755 12.1314C122.707 11.8135 121.903 11.3834 121.305 10.8224C120.706 10.2614 120.407 9.49473 120.407 8.50363C120.407 7.75563 120.557 7.10113 120.875 6.50273C121.193 5.92303 121.623 5.45552 122.146 5.11893C122.67 4.78233 123.268 4.53923 123.904 4.35223C124.54 4.18393 125.213 4.09043 125.924 4.09043C127.682 4.09043 129.009 4.44573 129.926 5.15633C130.823 5.86693 131.291 6.91413 131.291 8.27923V8.39143Z" fill="white"/>
<path d="M150.488 4.35223L144.074 17.6853H140.109V14.525C140.109 14.2258 140.165 12.5428 140.315 9.47603C139.791 11.2151 139.156 12.9916 138.408 14.8055L137.211 17.6853H133.209L132.218 4.37093H136.276V8.70933C136.276 10.4484 136.201 12.0566 136.07 13.5339C136.537 11.7761 137.192 9.94353 138.015 7.99873L139.529 4.37093H143.101V8.14833C143.101 10.1679 143.026 12.0005 142.877 13.6461C143.513 11.4208 144.167 9.49473 144.859 7.86783L146.318 4.35223H150.488Z" fill="white"/>
<path d="M162.988 4.35223L161.38 12.1127C160.969 14.1136 160.277 15.5722 159.267 16.4885C158.257 17.4235 156.761 17.8723 154.742 17.8723C152.89 17.8723 151.469 17.5357 150.497 16.8438C149.524 16.1706 149.038 15.1795 149.038 13.8892C149.038 13.5339 149.132 12.8607 149.337 11.8883L150.927 4.35223H155.003L153.358 12.0566C153.264 12.468 153.227 12.8046 153.227 13.0664C153.227 13.5713 153.376 13.964 153.676 14.2258C153.975 14.4876 154.386 14.6185 154.947 14.6185C155.34 14.6185 155.677 14.5437 155.976 14.3754C156.275 14.2258 156.499 13.9827 156.686 13.6461C156.855 13.3282 156.986 13.029 157.079 12.7672C157.154 12.5054 157.247 12.1501 157.36 11.7013L158.949 4.35223H162.988Z" fill="white"/>
</svg>
