<svg width="175" height="24" viewBox="0 0 175 24" fill="none" xmlns="http://www.w3.org/2000/svg">
<path d="M16.9883 5.9043L18.0928 7.01953L24 12.0059L18.0928 16.9912L16.9883 18.0957L12 24.001L7.01172 18.0957L5.90625 16.9912L0 12.0059L5.90625 7.01953L7.01172 5.9043L12 0L16.9883 5.9043ZM13.9941 9.75V14.7607H9.27441V16.2949H14.7617V12.1289L18.5625 9.75H13.9941ZM5.47363 9.75L9.27539 12.1289V9.75H5.47363Z" fill="#FF7710"/>
<path d="M39.2882 16.8844V19.8324H28.2002V4.16843H31.6322V16.8844H39.2882Z" fill="#FF7710"/>
<path d="M43.6952 4.16843V19.8324H40.2412V4.16843H43.6952Z" fill="#FF7710"/>
<path d="M59.6555 4.16843L53.5175 10.3504L60.2275 19.8324H55.9155L51.1635 12.7924L49.1615 14.7724V19.8324H45.7735V4.16843H49.1615V10.6804L55.3215 4.16843H59.6555Z" fill="#FF7710"/>
<path d="M72.3544 4.16843V6.98443H64.0164V10.3944H71.6724V13.1004H64.0164V16.9504H72.5084V19.8324H60.6064V4.16843H72.3544Z" fill="#FF7710"/>
<path d="M84.9601 16.8844V19.8324H73.8721V4.16843H77.3041V16.8844H84.9601Z" fill="#FF7710"/>
<path d="M89.3671 4.16843V19.8324H85.9131V4.16843H89.3671Z" fill="#FF7710"/>
<path d="M98.4854 3.79443C100.773 3.79443 102.621 4.56443 104.029 6.08243C105.437 7.60043 106.163 9.58043 106.163 12.0224C106.163 14.4864 105.437 16.4664 104.029 17.9624C102.621 19.4584 100.751 20.2064 98.4634 20.2064C96.1314 20.2064 94.2614 19.4584 92.8534 17.9624C91.4234 16.4664 90.7194 14.4864 90.7194 12.0224C90.7194 9.55843 91.4234 7.55643 92.8314 6.06043C94.2394 4.56443 96.1314 3.79443 98.4854 3.79443ZM98.4414 6.61043C97.1434 6.61043 96.1094 7.11643 95.3394 8.08443C94.5694 9.05243 94.1734 10.3504 94.1734 11.9784C94.1734 13.6504 94.5694 14.9704 95.3174 15.9384C96.0874 16.8844 97.1434 17.3684 98.4854 17.3904C99.7834 17.3904 100.817 16.9064 101.565 15.9384C102.313 14.9704 102.687 13.6504 102.687 11.9784C102.687 10.3284 102.291 9.03043 101.543 8.06243C100.773 7.09443 99.7394 6.61043 98.4414 6.61043Z" fill="#FF7710"/>
<path d="M107.524 19.8324V4.16843H111.022L117.468 14.6624V4.16843H120.768V19.8324H117.336L110.846 9.31643V19.8324H107.524Z" fill="#FF7710"/>
<path d="M139.548 8.83243L136.27 8.85443C136.138 7.29243 135.148 6.52243 133.3 6.52243C132.508 6.52243 131.892 6.67643 131.452 6.98443C131.012 7.29243 130.77 7.73243 130.77 8.30443C130.77 8.48043 130.814 8.65643 130.858 8.81043C130.924 8.94243 131.034 9.07443 131.188 9.20643C131.364 9.33843 131.518 9.42643 131.672 9.51443C131.848 9.60243 132.09 9.69043 132.398 9.77843C132.706 9.86643 132.992 9.95443 133.256 10.0424C133.52 10.1084 133.872 10.1964 134.334 10.3284C134.818 10.4384 135.214 10.5484 135.566 10.6584C137.106 11.0984 138.272 11.6484 139.02 12.3084C139.768 12.9684 140.142 13.9144 140.142 15.1464C140.142 16.0264 139.966 16.8184 139.592 17.4784C139.24 18.1384 138.734 18.6664 138.118 19.0624C137.502 19.4584 136.82 19.7444 136.072 19.9204C135.324 20.0964 134.532 20.2064 133.696 20.2064C131.584 20.2064 129.912 19.7004 128.724 18.7324C127.536 17.7644 126.92 16.3784 126.898 14.6184H130.308C130.374 16.5764 131.562 17.5664 133.85 17.5664C134.752 17.5664 135.456 17.3684 135.984 16.9944C136.512 16.6204 136.754 16.1144 136.754 15.4764C136.754 14.9264 136.534 14.5304 136.05 14.2884C135.566 14.0244 134.576 13.6944 133.036 13.2544C132.948 13.2324 132.882 13.2104 132.838 13.2104C132.794 13.1884 132.75 13.1664 132.662 13.1444C132.596 13.1224 132.53 13.1004 132.464 13.1004C131.936 12.9464 131.584 12.8364 131.364 12.7704C131.166 12.7044 130.836 12.5944 130.396 12.4404C129.956 12.2644 129.626 12.1324 129.428 12.0004C129.208 11.8684 128.966 11.6704 128.658 11.4504C128.35 11.2084 128.152 10.9664 128.02 10.7024C127.888 10.4384 127.756 10.1304 127.646 9.75643C127.536 9.38243 127.492 8.98643 127.492 8.54643C127.492 7.11643 128.042 5.97243 129.142 5.11443C130.242 4.27843 131.694 3.83843 133.52 3.83843C135.28 3.83843 136.71 4.25643 137.832 5.09243C138.932 5.92843 139.504 7.16043 139.548 8.83243Z" fill="#FF7710"/>
<path d="M139.789 4.16843H143.243L145.751 14.8164L148.501 4.16843H151.735L154.441 14.9484L157.037 4.16843H160.425L156.201 19.8324H152.769L150.085 9.14043L147.445 19.8324H143.947L139.789 4.16843Z" fill="#FF7710"/>
<path d="M174.349 4.16843V13.5844C174.349 15.8284 173.799 17.5004 172.721 18.5564C171.643 19.6124 169.971 20.1404 167.683 20.1404C165.351 20.1404 163.657 19.6124 162.557 18.5344C161.457 17.4564 160.929 15.7844 160.929 13.5404V4.16843H164.361V13.5404C164.361 14.8164 164.603 15.7624 165.087 16.3784C165.571 16.9944 166.451 17.3024 167.727 17.3024C168.959 17.3024 169.795 16.9944 170.235 16.3784C170.675 15.7624 170.917 14.8164 170.917 13.5404V4.16843H174.349Z" fill="#FF7710"/>
</svg>
