<svg width="24" height="24" viewBox="0 0 24 24" fill="none" xmlns="http://www.w3.org/2000/svg">
<path d="M14.1818 9.26875V7.4625C14.7818 7.21458 15.3956 7.02865 16.0233 6.90469C16.6502 6.78073 17.3091 6.71875 18 6.71875C18.4727 6.71875 18.9364 6.75417 19.3909 6.825C19.8455 6.89583 20.2909 6.98438 20.7273 7.09062V8.79062C20.2909 8.63125 19.8502 8.5119 19.4051 8.43256C18.9593 8.35252 18.4909 8.3125 18 8.3125C17.3091 8.3125 16.6455 8.39679 16.0091 8.56537C15.3727 8.73325 14.7636 8.96771 14.1818 9.26875ZM14.1818 15.1125V13.3062C14.7818 13.0583 15.3956 12.8724 16.0233 12.7484C16.6502 12.6245 17.3091 12.5625 18 12.5625C18.4727 12.5625 18.9364 12.5979 19.3909 12.6688C19.8455 12.7396 20.2909 12.8281 20.7273 12.9344V14.6344C20.2909 14.475 19.8502 14.3556 19.4051 14.2763C18.9593 14.1963 18.4909 14.1562 18 14.1562C17.3091 14.1562 16.6455 14.2359 16.0091 14.3953C15.3727 14.5547 14.7636 14.7937 14.1818 15.1125ZM14.1818 12.1906V10.3844C14.7818 10.1365 15.3956 9.95052 16.0233 9.82656C16.6502 9.7026 17.3091 9.64062 18 9.64062C18.4727 9.64062 18.9364 9.67604 19.3909 9.74688C19.8455 9.81771 20.2909 9.90625 20.7273 10.0125V11.7125C20.2909 11.5531 19.8502 11.4338 19.4051 11.3544C18.9593 11.2744 18.4909 11.2344 18 11.2344C17.3091 11.2344 16.6455 11.3187 16.0091 11.4873C15.3727 11.6551 14.7636 11.8896 14.1818 12.1906ZM6 15.75C6.85455 15.75 7.68655 15.8428 8.496 16.0284C9.30473 16.2147 10.1091 16.4937 10.9091 16.8656V6.4C10.1636 5.975 9.37273 5.65625 8.53636 5.44375C7.7 5.23125 6.85455 5.125 6 5.125C5.34545 5.125 4.69564 5.18698 4.05055 5.31094C3.40473 5.4349 2.78182 5.62083 2.18182 5.86875V16.3875C2.81818 16.175 3.45018 16.0156 4.07782 15.9094C4.70473 15.8031 5.34545 15.75 6 15.75ZM13.0909 16.8656C13.8909 16.4937 14.6956 16.2147 15.5051 16.0284C16.3138 15.8428 17.1455 15.75 18 15.75C18.6545 15.75 19.2956 15.8031 19.9233 15.9094C20.5502 16.0156 21.1818 16.175 21.8182 16.3875V5.86875C21.2182 5.62083 20.5956 5.4349 19.9505 5.31094C19.3047 5.18698 18.6545 5.125 18 5.125C17.1455 5.125 16.3 5.23125 15.4636 5.44375C14.6273 5.65625 13.8364 5.975 13.0909 6.4V16.8656ZM12 20C11.1273 19.3271 10.1818 18.8047 9.16364 18.4328C8.14545 18.0609 7.09091 17.875 6 17.875C5.23636 17.875 4.48655 17.9724 3.75055 18.1672C3.01382 18.362 2.30909 18.6365 1.63636 18.9906C1.25455 19.1854 0.886546 19.1766 0.532364 18.9641C0.177455 18.7516 0 18.4417 0 18.0344V5.23125C0 5.03646 0.0501818 4.85052 0.150545 4.67344C0.250182 4.49635 0.4 4.36354 0.6 4.275C1.43636 3.85 2.30909 3.53125 3.21818 3.31875C4.12727 3.10625 5.05455 3 6 3C7.05455 3 8.08655 3.13281 9.096 3.39844C10.1047 3.66406 11.0727 4.0625 12 4.59375C12.9273 4.0625 13.8956 3.66406 14.9051 3.39844C15.9138 3.13281 16.9455 3 18 3C18.9455 3 19.8727 3.10625 20.7818 3.31875C21.6909 3.53125 22.5636 3.85 23.4 4.275C23.6 4.36354 23.7502 4.49635 23.8505 4.67344C23.9502 4.85052 24 5.03646 24 5.23125V18.0344C24 18.4417 23.8229 18.7516 23.4687 18.9641C23.1138 19.1766 22.7455 19.1854 22.3636 18.9906C21.6909 18.6365 20.9862 18.362 20.2495 18.1672C19.5135 17.9724 18.7636 17.875 18 17.875C16.9091 17.875 15.8545 18.0609 14.8364 18.4328C13.8182 18.8047 12.8727 19.3271 12 20Z" fill="#F5F5F5"/>
</svg>
