<svg width="18" height="11" viewBox="0 0 18 11" fill="none" xmlns="http://www.w3.org/2000/svg">
<g clip-path="url(#clip0_1501_525)">
<path d="M8.92773 5.08594C8.92773 8.24414 7.02734 10.1719 4.4707 10.1719C1.88672 10.1719 0 8.24414 0 5.08594C0 1.91406 1.88672 0 4.4707 0C7.02734 0 8.92773 1.91406 8.92773 5.08594ZM7.4375 5.08594C7.4375 2.67969 6.16602 1.38086 4.4707 1.38086C2.76172 1.38086 1.49023 2.67969 1.49023 5.08594C1.49023 7.49219 2.76172 8.79102 4.4707 8.79102C6.16602 8.79102 7.4375 7.49219 7.4375 5.08594ZM10.623 10.0352V0.136719H14.1504C16.4473 0.136719 17.582 1.42188 17.582 3.24023C17.582 4.57324 16.9805 5.58496 15.7773 6.0293L17.9648 10.0352H16.2559L14.2461 6.30273H14.1504H12.127V10.0352H10.623ZM12.127 5.00391H14C15.4629 5.00391 16.0645 4.36133 16.0645 3.24023C16.0645 2.11914 15.4629 1.42188 14 1.42188H12.127V5.00391Z" fill="#BDBDBD"/>
</g>
<defs>
<clipPath id="clip0_1501_525">
<rect width="18" height="11" fill="white"/>
</clipPath>
</defs>
</svg>
