<svg width="64" height="64" viewBox="0 0 64 64" fill="none" xmlns="http://www.w3.org/2000/svg">
<rect width="64" height="64" rx="6" fill="#333333"/>
<g clip-path="url(#clip0_358_7753)">
<path d="M25.5833 13.5416C25.5833 12.6907 25.9213 11.8746 26.523 11.273C27.1246 10.6713 27.9407 10.3333 28.7916 10.3333H31.9999V16.7499H28.7916C27.9407 16.7499 27.1246 16.4119 26.523 15.8102C25.9213 15.2085 25.5833 14.3925 25.5833 13.5416Z" stroke="#BDBDBD" stroke-width="2" stroke-linecap="round" stroke-linejoin="round"/>
<path d="M32 10.3333H35.2083C35.6297 10.3333 36.0469 10.4162 36.4361 10.5775C36.8254 10.7387 37.179 10.975 37.477 11.273C37.7749 11.5709 38.0112 11.9246 38.1724 12.3138C38.3337 12.7031 38.4167 13.1203 38.4167 13.5416C38.4167 13.9629 38.3337 14.3801 38.1724 14.7694C38.0112 15.1586 37.7749 15.5123 37.477 15.8102C37.179 16.1081 36.8254 16.3445 36.4361 16.5057C36.0469 16.6669 35.6297 16.7499 35.2083 16.7499H32V10.3333Z" stroke="#BDBDBD" stroke-width="2" stroke-linecap="round" stroke-linejoin="round"/>
<path d="M32 19.9583C32 19.537 32.083 19.1198 32.2442 18.7306C32.4055 18.3413 32.6418 17.9876 32.9397 17.6897C33.2376 17.3918 33.5913 17.1555 33.9806 16.9942C34.3698 16.833 34.787 16.75 35.2083 16.75C35.6297 16.75 36.0469 16.833 36.4361 16.9942C36.8254 17.1555 37.179 17.3918 37.477 17.6897C37.7749 17.9876 38.0112 18.3413 38.1724 18.7306C38.3337 19.1198 38.4167 19.537 38.4167 19.9583C38.4167 20.3797 38.3337 20.7969 38.1724 21.1861C38.0112 21.5754 37.7749 21.929 37.477 22.227C37.179 22.5249 36.8254 22.7612 36.4361 22.9224C36.0469 23.0837 35.6297 23.1667 35.2083 23.1667C34.787 23.1667 34.3698 23.0837 33.9806 22.9224C33.5913 22.7612 33.2376 22.5249 32.9397 22.227C32.6418 21.929 32.4055 21.5754 32.2442 21.1861C32.083 20.7969 32 20.3797 32 19.9583Z" stroke="#BDBDBD" stroke-width="2" stroke-linecap="round" stroke-linejoin="round"/>
<path d="M25.5833 26.3751C25.5833 25.5242 25.9213 24.7081 26.523 24.1064C27.1246 23.5048 27.9407 23.1667 28.7916 23.1667H31.9999V26.3751C31.9999 27.226 31.6619 28.042 31.0602 28.6437C30.4585 29.2454 29.6425 29.5834 28.7916 29.5834C27.9407 29.5834 27.1246 29.2454 26.523 28.6437C25.9213 28.042 25.5833 27.226 25.5833 26.3751Z" stroke="#BDBDBD" stroke-width="2" stroke-linecap="round" stroke-linejoin="round"/>
<path d="M25.5833 19.9583C25.5833 19.1074 25.9213 18.2914 26.523 17.6897C27.1246 17.088 27.9407 16.75 28.7916 16.75H31.9999V23.1667H28.7916C27.9407 23.1667 27.1246 22.8286 26.523 22.227C25.9213 21.6253 25.5833 20.8092 25.5833 19.9583Z" stroke="#BDBDBD" stroke-width="2" stroke-linecap="round" stroke-linejoin="round"/>
</g>
<path d="M17.5469 51.5V40.1875H21.7969C24.3906 40.1875 25.7812 41.7656 25.7812 43.9375C25.7812 46.1094 24.375 47.6719 21.7656 47.6719H19.5781V51.5H17.5469ZM19.5781 46H21.4844C23.0156 46 23.7031 45.1406 23.7031 43.9375C23.7031 42.7188 23.0156 41.8906 21.4844 41.8906H19.5781V46ZM30.1875 51.6562C27.875 51.6562 26.4531 50.2969 26.4531 48.5C26.4531 47.1719 27.3203 46.3438 28.5781 45.4688C27.9219 44.6719 27.4219 43.8516 27.4219 42.8438C27.4219 41.2344 28.5938 40.0469 30.375 40.0469C32.1562 40.0469 33.25 41.2344 33.25 42.6094C33.25 43.6875 32.6875 44.5 31.75 45.1875L31.0312 45.7188L33.1094 48.1406C33.3984 47.5859 33.5781 46.9219 33.5781 46.1719H35.2969C35.2969 47.7266 34.8672 48.8281 34.3125 49.5625L35.9688 51.5H33.8125L33.0938 50.6719C32.2812 51.3438 31.1875 51.6562 30.1875 51.6562ZM28.4062 48.4062C28.4062 49.3125 29.125 50.0312 30.25 50.0312C30.8516 50.0312 31.4688 49.8203 32.0156 49.4219L29.6562 46.7188L29.4688 46.8594C28.7031 47.4219 28.4062 48.0156 28.4062 48.4062ZM29.1875 42.875C29.1875 43.3906 29.5391 43.9141 30.0156 44.5L30.6562 44.0625C31.25 43.6719 31.5625 43.2812 31.5625 42.7031C31.5625 42.2031 31.125 41.6719 30.4062 41.6875C29.6875 41.6875 29.1875 42.25 29.1875 42.875ZM40.8906 51.5H37.0469V40.1875H40.9531C44.3281 40.1875 46.375 42.3125 46.375 45.8281C46.375 49.3594 44.3281 51.5 40.8906 51.5ZM39.0781 49.7344H40.7812C43.1406 49.7344 44.3438 48.4375 44.3438 45.8281C44.3438 43.2344 43.1406 41.9531 40.8438 41.9531H39.0781V49.7344Z" fill="#BDBDBD"/>
<defs>
<clipPath id="clip0_358_7753">
<rect width="22" height="22" fill="white" transform="translate(21 8.5)"/>
</clipPath>
</defs>
</svg>
