<svg width="32" height="30" viewBox="0 0 32 30" fill="none" xmlns="http://www.w3.org/2000/svg">
<g clip-path="url(#clip0_1517_358)">
<path d="M10.6133 17.9238H15.4004L17.4414 20.5586C18.7217 19.0557 19.4453 16.792 19.4453 13.8047C19.4453 8.05273 16.7363 4.93555 12.5801 4.93555C8.42383 4.93555 5.67773 8.05273 5.67773 13.8047C5.67773 19.5566 8.42383 22.6738 12.5801 22.6738C13.1182 22.6738 13.6377 22.6182 14.1387 22.5254L10.6133 17.9238ZM25.123 13.8047C25.123 18.5918 23.4902 22.2842 20.8555 24.6035L24.6777 29.4648H19.4453L17.293 26.7559C15.8457 27.3311 14.25 27.6094 12.5801 27.6094C5.41797 27.6094 0 22.5254 0 13.8047C0 5.04688 5.41797 0 12.5801 0C19.668 0 25.123 5.04688 25.123 13.8047ZM28.5781 27.5723C26.834 27.5723 25.4238 26.1621 25.4609 24.4551C25.4238 22.748 26.834 21.375 28.5781 21.375C30.2109 21.375 31.6582 22.748 31.6582 24.4551C31.6582 26.1621 30.2109 27.5723 28.5781 27.5723Z" fill="#F5F5F5"/>
</g>
<defs>
<clipPath id="clip0_1517_358">
<rect width="32" height="30" fill="white"/>
</clipPath>
</defs>
</svg>
