<svg width="30" height="30" viewBox="0 0 30 30" fill="none" xmlns="http://www.w3.org/2000/svg">
<rect width="30" height="30" rx="8" fill="#D60B03"/>
<path d="M10.4167 19.5832V17.7498H16.8333V19.5832H10.4167ZM10.4167 15.9165V14.0832H19.5833V15.9165H10.4167ZM8.58333 23.2498C8.07917 23.2498 7.64742 23.0705 7.28808 22.7118C6.92936 22.3524 6.75 21.9207 6.75 21.4165V8.58317C6.75 8.079 6.92936 7.64756 7.28808 7.28884C7.64742 6.9295 8.07917 6.74984 8.58333 6.74984H9.5V4.9165H11.3333V6.74984H18.6667V4.9165H20.5V6.74984H21.4167C21.9208 6.74984 22.3526 6.9295 22.7119 7.28884C23.0706 7.64756 23.25 8.079 23.25 8.58317V21.4165C23.25 21.9207 23.0706 22.3524 22.7119 22.7118C22.3526 23.0705 21.9208 23.2498 21.4167 23.2498H8.58333ZM8.58333 21.4165H21.4167V12.2498H8.58333V21.4165ZM8.58333 10.4165H21.4167V8.58317H8.58333V10.4165Z" fill="#F5F5F5"/>
</svg>
