<svg width="30" height="30" viewBox="0 0 30 30" fill="none" xmlns="http://www.w3.org/2000/svg">
<rect width="30" height="30" rx="8" fill="#D60B03"/>
<g clip-path="url(#clip0_1124_1861)">
<path d="M17.1818 12.2687V10.4625C17.7818 10.2146 18.3956 10.0286 19.0233 9.90469C19.6502 9.78073 20.3091 9.71875 21 9.71875C21.4727 9.71875 21.9364 9.75417 22.3909 9.825C22.8455 9.89583 23.2909 9.98438 23.7273 10.0906V11.7906C23.2909 11.6312 22.8502 11.5119 22.4051 11.4326C21.9593 11.3525 21.4909 11.3125 21 11.3125C20.3091 11.3125 19.6455 11.3968 19.0091 11.5654C18.3727 11.7333 17.7636 11.9677 17.1818 12.2687ZM17.1818 18.1125V16.3062C17.7818 16.0583 18.3956 15.8724 19.0233 15.7484C19.6502 15.6245 20.3091 15.5625 21 15.5625C21.4727 15.5625 21.9364 15.5979 22.3909 15.6688C22.8455 15.7396 23.2909 15.8281 23.7273 15.9344V17.6344C23.2909 17.475 22.8502 17.3556 22.4051 17.2763C21.9593 17.1963 21.4909 17.1562 21 17.1562C20.3091 17.1562 19.6455 17.2359 19.0091 17.3953C18.3727 17.5547 17.7636 17.7937 17.1818 18.1125ZM17.1818 15.1906V13.3844C17.7818 13.1365 18.3956 12.9505 19.0233 12.8266C19.6502 12.7026 20.3091 12.6406 21 12.6406C21.4727 12.6406 21.9364 12.676 22.3909 12.7469C22.8455 12.8177 23.2909 12.9063 23.7273 13.0125V14.7125C23.2909 14.5531 22.8502 14.4338 22.4051 14.3544C21.9593 14.2744 21.4909 14.2344 21 14.2344C20.3091 14.2344 19.6455 14.3187 19.0091 14.4873C18.3727 14.6551 17.7636 14.8896 17.1818 15.1906ZM9 18.75C9.85455 18.75 10.6865 18.8428 11.496 19.0284C12.3047 19.2147 13.1091 19.4937 13.9091 19.8656V9.4C13.1636 8.975 12.3727 8.65625 11.5364 8.44375C10.7 8.23125 9.85455 8.125 9 8.125C8.34545 8.125 7.69564 8.18698 7.05055 8.31094C6.40473 8.4349 5.78182 8.62083 5.18182 8.86875V19.3875C5.81818 19.175 6.45018 19.0156 7.07782 18.9094C7.70473 18.8031 8.34545 18.75 9 18.75ZM16.0909 19.8656C16.8909 19.4937 17.6956 19.2147 18.5051 19.0284C19.3138 18.8428 20.1455 18.75 21 18.75C21.6545 18.75 22.2956 18.8031 22.9233 18.9094C23.5502 19.0156 24.1818 19.175 24.8182 19.3875V8.86875C24.2182 8.62083 23.5956 8.4349 22.9505 8.31094C22.3047 8.18698 21.6545 8.125 21 8.125C20.1455 8.125 19.3 8.23125 18.4636 8.44375C17.6273 8.65625 16.8364 8.975 16.0909 9.4V19.8656ZM15 23C14.1273 22.3271 13.1818 21.8047 12.1636 21.4328C11.1455 21.0609 10.0909 20.875 9 20.875C8.23636 20.875 7.48655 20.9724 6.75055 21.1672C6.01382 21.362 5.30909 21.6365 4.63636 21.9906C4.25455 22.1854 3.88655 22.1766 3.53236 21.9641C3.17745 21.7516 3 21.4417 3 21.0344V8.23125C3 8.03646 3.05018 7.85052 3.15055 7.67344C3.25018 7.49635 3.4 7.36354 3.6 7.275C4.43636 6.85 5.30909 6.53125 6.21818 6.31875C7.12727 6.10625 8.05455 6 9 6C10.0545 6 11.0865 6.13281 12.096 6.39844C13.1047 6.66406 14.0727 7.0625 15 7.59375C15.9273 7.0625 16.8956 6.66406 17.9051 6.39844C18.9138 6.13281 19.9455 6 21 6C21.9455 6 22.8727 6.10625 23.7818 6.31875C24.6909 6.53125 25.5636 6.85 26.4 7.275C26.6 7.36354 26.7502 7.49635 26.8505 7.67344C26.9502 7.85052 27 8.03646 27 8.23125V21.0344C27 21.4417 26.8229 21.7516 26.4687 21.9641C26.1138 22.1766 25.7455 22.1854 25.3636 21.9906C24.6909 21.6365 23.9862 21.362 23.2495 21.1672C22.5135 20.9724 21.7636 20.875 21 20.875C19.9091 20.875 18.8545 21.0609 17.8364 21.4328C16.8182 21.8047 15.8727 22.3271 15 23Z" fill="#F5F5F5"/>
</g>
<defs>
<clipPath id="clip0_1124_1861">
<rect width="22" height="22" fill="white" transform="translate(4 4)"/>
</clipPath>
</defs>
</svg>
